HIERARCHY
ROOT Hips
{
	OFFSET	0.00	0.00	0.00
	CHANNELS 6 Xposition Yposition Zposition Zrotation Xrotation Yrotation
	JOINT Spine
	{
		OFFSET	 0.00	0.01	 0.00
		CHANNELS 3 Zrotation Xrotation Yrotation
		JOINT Spine1
		{
			OFFSET	 0.00	 2.45913012437421	 0.00
			CHANNELS 3 Zrotation Xrotation Yrotation
            JOINT Neck
            {
                OFFSET	 0.00	 2.48462964506057	 0.00
                CHANNELS 3 Zrotation Xrotation Yrotation
                JOINT Head
                {
                    OFFSET	 0.00	 0.927524780924562	 0.00
                    CHANNELS 3 Zrotation Xrotation Yrotation
                    End Site 
                    {
                        OFFSET	 0.00	 1.14999962169752	 0.00
                    }
                }
            }
			JOINT LeftShoulder
			{
				OFFSET	 0.00	 2.48462964506057	 0.00
				CHANNELS 3 Zrotation Xrotation Yrotation
				JOINT LeftUpArm
				{
					OFFSET	 0.00	 1.24881979654096	 0.00
					CHANNELS 3 Zrotation Xrotation Yrotation
					JOINT LeftForeArm
					{
						OFFSET	 0.00	2.59758046908119	 0.00
						CHANNELS 3 Zrotation Xrotation Yrotation
						JOINT LeftHand
						{
							OFFSET	 0.00	2.45542024364365	 0.00
							CHANNELS 3 Zrotation Xrotation Yrotation
							JOINT LeftHandThumb 
							{
								OFFSET	 0.00	0.00	 0.00
								CHANNELS 3 Zrotation Xrotation Yrotation
								End Site
								{
									OFFSET	 0.00	0.00	1.00000003353624
								}
							}
							JOINT L_Wrist_End 
							{
								OFFSET	 0.00	0.99999967115358	 0.00
								CHANNELS 3 Zrotation Xrotation Yrotation
								End Site 
								{
									OFFSET	 0.00	 0.00	 0.00
								}
							}
						}
					}
				}
			}
			JOINT RightShoulder
			{
				OFFSET	 0.00	 2.48462964506057	 0.00
				CHANNELS 3 Zrotation Xrotation Yrotation
				JOINT RightUpArm
				{
					OFFSET	 0.00	 1.24881979654096	 0.00
					CHANNELS 3 Zrotation Xrotation Yrotation
					JOINT RightForeArm
					{
						OFFSET	 0.00	2.59758046908119	 0.00
						CHANNELS 3 Zrotation Xrotation Yrotation
						JOINT RightHand
						{
							OFFSET	 0.00	2.45542024364365	 0.00
							CHANNELS 3 Zrotation Xrotation Yrotation
							JOINT RightHandThumb 
							{
								OFFSET	 0.00	0.00	 0.00
								CHANNELS 3 Zrotation Xrotation Yrotation
								End Site
								{
									OFFSET	 0.00	0.00	1.00000003353624
								}
							}
							JOINT R_Wrist_End 
							{
								OFFSET	 0.00	0.99999967115358	 0.00
								CHANNELS 3 Zrotation Xrotation Yrotation
								End Site 
								{
									OFFSET	 0.00	 0.00	 0.00
								}
							}
						}
					}
				}
			}
		}
	}
	JOINT LeftUpLeg
	{
		OFFSET	 1.2719394002717	 0.00	 0.00
		CHANNELS 3 Zrotation Xrotation Yrotation
		JOINT LeftLowLeg
		{
			OFFSET	 0.00	-4.3429100912261	 0.00
			CHANNELS 3 Zrotation Xrotation Yrotation
			JOINT LeftFoot
			{
				OFFSET	 0.00	-4.48767017425826	 0.00
				CHANNELS 3 Zrotation Xrotation Yrotation
				JOINT LeftToeBase
                {
                    OFFSET	 0.00	0.00	 1.51507020887566
                    CHANNELS 3 Zrotation Xrotation Yrotation
                    End Site 
                    {
                        OFFSET	 0.00	0.00	 0.75000010571191
                    }
                }
			}
		}
	}
	JOINT RightUpLeg
	{
		OFFSET	 -1.2719393604653	 0.00	 0.00
		CHANNELS 3 Zrotation Xrotation Yrotation
		JOINT RightLowLeg
		{
			OFFSET	 0.00	-4.3429100912261	 0.00
			CHANNELS 3 Zrotation Xrotation Yrotation
			JOINT RightFoot
			{
				OFFSET	 0.00	-4.48767017425826	 0.00
				CHANNELS 3 Zrotation Xrotation Yrotation
				JOINT RightToeBase
                {
                    OFFSET	 0.00	0.00	 1.51507020887566
                    CHANNELS 3 Zrotation Xrotation Yrotation
                    End Site 
                    {
                        OFFSET	 0.00	0.00	 0.749999965609858
                    }
                }   
			}
		}
	}
}
MOTION 
Frames:	15 
Frame Time: 0.02 
 -6.60551025390625 15.892900390625 10.2752001953125 -55.3299 85.8055 45.8147 2.17134 -22.6809 -4.32283 0.823281 40.2071 -0.524959 -6.15297 20.2466 3.11359 28.5678 -66.6366 21.3426 -119.8146 1.89526 -6.40738 -31.6037 4.63434 35.4513 0.0 22.0689 0.0 7.23214 22.2496 -11.5261 0.0 0.0 0.0 0.0 0.0 0.0 117.073 1.14115 1.4735 40.1155 6.68837 -23.4127 0.0 26.6304 0.0 -4.16275 -0.667266 8.03149 0.0 0.0 0.0 0.0 0.0 0.0 8.68127 10.6071 23.6049 0.0 2.90525 0.0 -12.6822 9.65943 5.52486 0.0 -10.77734 0.0 10.5366 8.43258 8.99205 0.0 7.74697 0.0 15.2533 6.6294403 -24.8358 0.0 -13.09754 0.0 
  -6.647150268554688 15.89280029296875 10.2722998046875 -55.7912 85.9747 46.3817 2.09635 -22.3462 -4.40727 0.834082 40.2048 -0.577118 -6.35287 19.2238 3.21207 28.8202 -67.0377 21.4341 -119.6103 1.77859 -6.49812 -31.7165 4.38602 35.4778 0.0 22.6387 0.0 7.88875 22.201 -11.8074 0.0 0.0 0.0 0.0 0.0 0.0 117.1228 1.2175 1.31286 39.9361 7.03965 -23.4022 0.0 26.6671 0.0 -4.14553 -0.649572 8.01017 0.0 0.0 0.0 0.0 0.0 0.0 8.96326 10.0253 23.576 0.0 3.81337 0.0 -12.6913 9.42614 5.63448 0.0 -10.97551 0.0 10.6697 8.35909 8.97784 0.0 7.70191 0.0 15.2093 6.59805 -24.8598 0.0 -13.03836 0.0 
  -6.687160034179687 15.89300048828125 10.269200439453124 -56.3982 86.1394 47.1344 1.97236 -21.9739 -4.62013 1.0429 40.1793 -0.641787 -6.87349 18.2049 3.39653 29.0311 -67.5936 21.4123 -119.5282 1.73731 -6.34747 -31.8278 4.18716 35.278 0.0 23.0942 0.0 8.19285 22.3727 -12.3507 0.0 0.0 0.0 0.0 0.0 0.0 116.9188 1.30738 1.11585 39.9032 7.35648 -23.1989 0.0 26.7718 0.0 -4.15454 -0.55154 8.05675 0.0 0.0 0.0 0.0 0.0 0.0 9.2782 9.31735 23.0943 0.0 4.96386 0.0 -12.7114 8.99887 6.10721 0.0 -11.16028 0.0 10.8044 8.27551 8.88566 0.0 7.6589 0.0 15.1494 6.5841703 -24.8493 0.0 -12.99721 0.0 
  -6.725070190429688 15.892900390625 10.266099853515625 -56.8018 86.3439 47.7272 1.90151 -21.5918 -4.72758 1.12547 40.1629 -0.687407 -7.08413 17.1417 3.3622 29.077 -68.1784 21.4877 -119.4133 1.73555 -6.37712 -31.9398 3.95464 35.3843 0.0 23.3886 0.0 8.36999 22.5831 -12.8321 0.0 0.0 0.0 0.0 0.0 0.0 116.8561 1.3915 1.08214 39.7481 7.51471 -23.2219 0.0 26.9886 0.0 -4.29007 -0.431434 8.09542 0.0 0.0 0.0 0.0 0.0 0.0 9.57215 8.42077 22.2953 0.0 6.43352 0.0 -12.7966 8.42564 6.86344 0.0 -11.36928 0.0 10.9048 8.14224 8.7179 0.0 7.68193 0.0 15.053 6.52151 -24.8268 0.0 -12.9318695 0.0 
  -6.7592401123046875 15.89280029296875 10.262900390625 -57.7839 86.6116 48.9179 1.8438 -21.2932 -4.82826 1.189 40.1933 -0.751833 -7.31087 16.1244 3.3734 29.4163 -68.8086 21.7087 -119.387 1.6424 -6.28417 -32.0054 3.95432 35.4177 0.0 23.5465 0.0 8.46175 22.7081 -12.8932 0.0 0.0 0.0 0.0 0.0 0.0 116.757095 1.48891 1.0169 39.6107 7.65218 -23.0578 0.0 27.3152 0.0 -4.29281 -0.725512 8.10537 0.0 0.0 0.0 0.0 0.0 0.0 9.82165 7.26616 21.0323 0.0 8.25917 0.0 -12.9699 7.65787 8.05044 0.0 -11.86236 0.0 10.9647 7.94308 8.61746 0.0 7.70236 0.0 14.957 6.41747 -24.8592 0.0 -12.89838 0.0 
  -6.78906982421875 15.891800537109376 10.259300537109375 -58.3419 86.8681 49.7167 1.86614 -20.9983 -4.85705 1.19105 40.3067 -0.844616 -7.40351 15.0462 3.29522 29.5209 -69.3555 21.7494 -119.3659 1.66073 -6.32539 -32.1199 3.85077 35.3446 0.0 23.4968 0.0 8.32057 22.9545 -12.7692 0.0 0.0 0.0 0.0 0.0 0.0 116.695496 1.57382 1.1228 39.4681 7.75479 -23.1032 0.0 27.5247 0.0 -4.43336 -0.690214 8.46007 0.0 0.0 0.0 0.0 0.0 0.0 10.0088 5.89776 19.1102 0.0 10.55 0.0 -13.2903 6.62809 9.76971 0.0 -12.64939 0.0 10.9894 7.80983 8.59708 0.0 7.67214 0.0 14.91 6.25196 -24.9575 0.0 -12.86677 0.0 
  -6.813460083007812 15.888399658203125 10.255999755859374 -57.5434 87.0882 49.1771 2.02774 -20.7194 -4.73851 1.03353 40.5599 -0.985015 -7.36489 14.0491 3.17405 29.8108 -69.9291 21.9716 -119.2902 1.67824 -6.25191 -32.2317 3.90532 35.263 0.0 23.3758 0.0 8.28498 23.0673 -12.6913 0.0 0.0 0.0 0.0 0.0 0.0 116.7023 1.71658 1.23347 39.2994 7.8681 -23.0468 0.0 27.7178 0.0 -4.50106 -0.516949 8.62976 0.0 0.0 0.0 0.0 0.0 0.0 10.0484 4.35236 16.5746 0.0 13.3342 0.0 -13.4708 5.34229 12.0185 0.0 -14.2742405 0.0 10.962 7.79719 8.57373 0.0 7.58762 0.0 14.8544 6.06557 -25.0701 0.0 -12.82892 0.0 
  -6.830640258789063 15.881600341796876 10.252900390625 -60.1512 87.4685 52.1314 2.36751 -20.7443 -4.46194 0.669734 40.9142 -1.22339 -7.16454 13.0384 3.04605 30.1409 -70.3991 22.2199 -119.1365 1.70256 -6.17603 -32.3272 4.02264 35.2864 0.0 23.2214 0.0 8.28338 23.047 -12.761 0.0 0.0 0.0 0.0 0.0 0.0 116.817 1.79951 1.39382 39.1294 8.04247 -23.048 0.0 27.8531 0.0 -4.51531 -0.679535 8.67703 0.0 0.0 0.0 0.0 0.0 0.0 9.89569 2.33035 13.9925 0.0 16.5212 0.0 -12.5501 4.2361 14.4558 0.0 -16.10523 0.0 10.8512 7.67272 8.46701 0.0 7.29665 0.0 14.8309 5.9165497 -25.104 0.0 -12.78751 0.0 
  -6.842349853515625 15.871199951171874 10.251400146484375 -62.2489 87.8142 54.5694 2.75963 -20.7662 -4.1626 0.317807 41.3411 -1.48192 -6.82781 12.043 2.80571 30.1031 -70.7847 22.2243 -119.052 1.77158 -6.22951 -32.4214 4.06091 35.4824 0.0 22.9522 0.0 8.32541 23.0961 -13.1081 0.0 0.0 0.0 0.0 0.0 0.0 116.9738 1.89527 1.51036 38.8628 8.30009 -23.0415 0.0 27.8101 0.0 -4.60284 -0.13331 8.4822 0.0 0.0 0.0 0.0 0.0 0.0 9.57571 0.173709 11.8241 0.0 20.0602 0.0 -10.1707 3.7754002 16.9175 0.0 -18.4482 0.0 10.7109 7.62348 8.51687 0.0 7.02043 0.0 14.8393 5.7105 -25.299 0.0 -12.71086 0.0 
  -6.8505401611328125 15.856600341796875 10.250699462890625 -65.8283 88.1975 58.5201 3.11913 -20.7952 -3.9179 0.0218294 41.6178 -1.74819 -6.61937 11.3473 2.65747 30.4808 -71.2265 22.5814 -119.025696 1.81002 -6.27339 -32.5389 4.03283 35.6986 0.0 22.6536 0.0 8.29311 23.1162 -13.149 0.0 0.0 0.0 0.0 0.0 0.0 117.1061 2.04924 1.63504 38.5831 8.5002 -23.1541 0.0 27.5922 0.0 -4.55007 -0.120002 8.59186 0.0 0.0 0.0 0.0 0.0 0.0 9.13656 -2.15029 10.208 0.0 23.6966 0.0 -8.01721 3.5772 18.6749 0.0 -19.625801 0.0 10.5091 7.61329 8.43679 0.0 6.62855 0.0 14.8371 5.5672398 -25.3812 0.0 -12.69706 0.0 
  -6.85656005859375 15.839200439453125 10.250799560546875 -70.6265 88.5685 63.6302 3.41471 -20.7604 -3.73611 -0.10743 41.7726 -1.91612 -6.58111 10.7984 2.52532 30.7168 -71.6199 22.6811 -119.037796 1.8266 -6.42364 -32.8195 3.94164 36.0246 0.0 22.2348 0.0 8.13499 23.1983 -13.2726 0.0 0.0 0.0 0.0 0.0 0.0 117.1911 2.14111 1.78169 38.261 8.62634 -23.2113 0.0 27.3163 0.0 -4.34087 -0.347092 8.52512 0.0 0.0 0.0 0.0 0.0 0.0 8.59621 -4.48526 8.65301 0.0 27.3164 0.0 -7.34631 3.2902002 19.3524 0.0 -20.499859 0.0 10.2903 7.60998 8.50665 0.0 6.29718 0.0 14.8323 5.38651 -25.5552 0.0 -12.723391 0.0 
  -6.860880126953125 15.8206005859375 10.250899658203124 -88.3364 88.9922 81.5477 3.63674 -20.8223 -3.60161 -0.132308 41.7619 -1.98085 -6.69206 10.4304 2.44485 30.9728 -71.9866 22.8145 -119.0805 1.76003 -6.51845 -33.1744 3.84785 36.412 0.0 21.9355 0.0 7.95714 23.0764 -13.3893 0.0 0.0 0.0 0.0 0.0 0.0 117.2018 2.26619 1.9887 37.977 8.69276 -23.3164 0.0 26.8365 0.0 -4.33063 -0.354162 8.41746 0.0 0.0 0.0 0.0 0.0 0.0 7.98874 -6.90208 7.53599 0.0 30.5763 0.0 -7.22786 3.1971998 18.384 0.0 -20.9216 0.0 10.0181 7.40354 8.50151 0.0 6.02638 0.0 14.748 5.2290697 -25.576 0.0 -12.78818 0.0 
  -6.865040283203125 15.796700439453126 10.250999755859375 -122.95 89.227 116.152 3.70399 -20.7755 -3.5747 0.126619 41.5335 -1.81677 -7.03281 10.2644 2.34799 31.1694 -72.4225 22.8309 -119.326096 1.709 -6.73259 -33.5718 3.52403 36.931 0.0 21.6743 0.0 7.84048 22.9906 -13.4733 0.0 0.0 0.0 0.0 0.0 0.0 117.098 2.29419 2.04447 37.5997 8.75522 -23.219 0.0 26.3716 0.0 -4.18796 -0.473906 8.05615 0.0 0.0 0.0 0.0 0.0 0.0 7.38616 -9.10623 6.9877 0.0 33.1521 0.0 -7.82106 3.0015001 15.9818 0.0 -21.18095 0.0 9.71143 7.15403 8.47013 0.0 5.90476 0.0 14.6229 5.01528 -25.417 0.0 -12.7352 0.0 
  -6.867999877929687 15.76969970703125 10.2531005859375 -165.213 89.0274 158.393 3.47143 -20.9288 -3.84669 0.786658 41.6171 -1.46705 -7.74404 9.72678 2.38318 30.5435 -72.5628 21.8421 -119.656296 1.81376 -7.1582 -34.0857 3.03492 37.4451 0.0 21.6179 0.0 7.50782 22.9737 -13.5111 0.0 0.0 0.0 0.0 0.0 0.0 116.5911 2.33555 2.35216 37.405 8.75554 -23.1607 0.0 25.8496 0.0 -4.09057 -0.395471 7.68442 0.0 0.0 0.0 0.0 0.0 0.0 6.70621 -11.2319 6.55312 0.0 35.0313 0.0 -7.74758 3.5965996 13.7049 0.0 -22.36186 0.0 9.36315 6.79826 8.26484 0.0 5.84731 0.0 14.38 4.9643 -25.1714 0.0 -12.90266 0.0 
  -6.8723602294921875 15.738800048828125 10.254000244140625 173.729 88.4615 179.435 3.37387 -20.9321 -3.9644 1.1504 41.2526 -1.24523 -8.29126 9.50704 2.44845 30.7938 -72.8665 21.7478 -119.968 1.62238 -7.33943 -34.3786 2.66679 38.0526 0.0 21.6578 0.0 7.35238 22.8122 -13.866 0.0 0.0 0.0 0.0 0.0 0.0 116.4029 2.51646 2.38073 37.1261 8.68477 -23.0602 0.0 25.279 0.0 -4.10508 -0.666382 7.58019 0.0 0.0 0.0 0.0 0.0 0.0 5.99244 -13.2454 6.22344 0.0 36.1145 0.0 -8.39404 4.1702995 11.4515 0.0 -23.564121 0.0 9.02556 6.37425 8.0353 0.0 5.81847 0.0 14.1725 4.8261003 -24.9555 0.0 -12.85888 0.0 
